<?xml version="1.0" standalone="no"?><!DOCTYPE svg PUBLIC "-//W3C//DTD SVG 1.1//EN" "http://www.w3.org/Graphics/SVG/1.1/DTD/svg11.dtd"><svg class="icon" width="200px" height="181.88px" viewBox="0 0 1126 1024" version="1.1" xmlns="http://www.w3.org/2000/svg"><path d="M742.024533 0.7168H324.642133c-27.818667 0-46.3872 18.551467-46.3872 46.3872v231.8848l463.7696 231.8848 185.514667 69.563733 185.514667-69.563733V278.9888L742.007467 0.7168z" fill="#3CD08B" /><path d="M278.254933 278.9888h463.7696v231.8848H278.254933z" fill="#3CD08B" /><path d="M1113.0368 47.104v231.8848H742.024533V0.7168H1066.666667c23.1936 0 46.370133 23.210667 46.370133 46.3872z" fill="#43EA9D" /><path d="M742.024533 510.8736H278.254933v463.7696c0 27.818667 18.551467 46.370133 46.3872 46.370133H1066.666667c27.818667 0 46.370133-18.551467 46.370133-46.370133V742.741333L742.024533 510.8736z" fill="#2B965C" /><path d="M640 232.618667H278.254933v649.2672h352.477867c32.4608 0 64.9216-32.4608 64.9216-64.9216V288.256c0-32.4608-23.1936-55.637333-55.6544-55.637333z" fill="#166147" /><path d="M593.629867 835.515733H55.637333C23.1936 835.515733 0 812.305067 0 779.861333V241.885867c0-32.4608 23.1936-55.6544 55.637333-55.6544h542.6176c27.818667 0 51.029333 23.1936 51.029334 55.637333v542.6176c0 27.818667-23.210667 51.029333-55.6544 51.029333z" fill="#32B779" /><path d="M157.696 696.3712l120.558933-185.514667-111.291733-185.4976h88.1152l60.279467 115.950934c9.284267 13.909333 9.284267 23.176533 13.909333 27.818666l13.9264-27.818666 64.9216-115.950934h83.473067l-111.291734 185.514667 115.933867 185.514667h-92.757333l-69.563734-129.877334c0-4.625067-4.642133-9.2672-9.2672-18.5344 0 4.625067-4.642133 9.2672-9.284266 18.551467l-69.563734 129.8432H157.696z" fill="#FFFFFF" /><path d="M742.024533 510.8736h371.029334V742.741333h-371.029334z" fill="#32B779" /></svg>