<?xml version="1.0" encoding="UTF-8"?>
<svg width="32px" height="34px" viewBox="0 0 32 34" version="1.1" xmlns="http://www.w3.org/2000/svg" xmlns:xlink="http://www.w3.org/1999/xlink">
    <title>Pdf</title>
    <g id="页面-1" stroke="none" stroke-width="1" fill="none" fill-rule="evenodd">
        <g id="数据分类目录" transform="translate(-255.000000, -710.000000)" fill-rule="nonzero">
            <g id="编组-11备份-9" transform="translate(240.000000, 696.000000)">
                <g id="Pdf" transform="translate(15.000000, 14.000000)">
                    <path d="M28.1948695,32.8604041 C27.8963044,33.1589692 27.4913633,33.3267014 27.0691284,33.3267014 L4.78059247,33.3267014 C4.35835766,33.3267014 3.95341649,33.1589692 3.6548514,32.8604041 C3.35628631,32.561839 3.1885542,32.1568979 3.1885542,31.7346631 L3.1885542,1.59207014 C3.1885542,1.16983533 3.35628631,0.764894159 3.6548514,0.466329059 C3.95341649,0.16776396 4.35835766,-0.000119791285 4.78059247,-0.000119791285 L18.4562013,-0.000119791285 C18.8793699,-0.00241474268 19.2861009,0.163714842 19.5865485,0.461722938 L28.1994756,9.07465007 C28.4974837,9.37509767 28.6636133,9.78182872 28.6613184,10.2049972 L28.6613184,31.7346631 C28.6613184,32.1568979 28.4934346,32.561839 28.1948695,32.8604041 Z" id="路径" fill="#F2F2F5"></path>
                    <path d="M31.8452433,17.512453 L31.8452433,27.4726444 C31.8452433,27.8948792 31.6775112,28.2998204 31.3789461,28.5983855 C31.080381,28.8969506 30.6754398,29.0646827 30.253205,29.0646827 L1.59651589,29.0646827 C1.17428108,29.0646827 0.769339913,28.8969506 0.47077482,28.5983855 C0.172209726,28.2998204 0.0044776166,27.8948792 0.0044776166,27.4726444 L0.0044776166,17.512453 L31.8452433,17.512453 Z" id="路径" fill="#B809EF"></path>
                    <path d="M12.3786269,26.1203582 C12.9116418,26.1203582 13.4016716,26.0515821 13.8487164,25.9140299 C14.2699701,25.7764776 14.6396418,25.5873433 14.9577313,25.3380299 L14.9577313,22.7589254 L12.3270448,22.7589254 L12.3270448,23.5584478 L14.0206567,23.5584478 L14.0206567,24.8909851 C13.8143284,25.0199403 13.590806,25.1231045 13.3328955,25.1918806 C13.0663881,25.2606567 12.7826866,25.3036418 12.481791,25.3036418 C11.7166567,25.3036418 11.1492537,25.0887164 10.7881791,24.6588657 C10.4442985,24.263403 10.2809552,23.696 10.2809552,22.9566567 C10.2809552,22.2001194 10.4614925,21.6069254 10.8397612,21.1770746 C11.1922388,20.7644179 11.6650746,20.5666866 12.2582687,20.5666866 C12.7397015,20.5666866 13.1351642,20.6698507 13.4274627,20.8847761 C13.7197612,21.0911045 13.9088955,21.400597 13.9948657,21.8132537 L14.9405373,21.8132537 C14.8287761,21.1254925 14.5536716,20.6182687 14.1152239,20.2743881 C13.6595821,19.9133134 13.040597,19.7413731 12.2582687,19.7413731 C11.3555821,19.7413731 10.6334328,20.0508657 10.1004179,20.6870448 C9.59319403,21.2802388 9.3438806,22.0367761 9.3438806,22.9566567 C9.3438806,23.8679403 9.59319403,24.6158806 10.1004179,25.1918806 C10.6420299,25.8108657 11.3985672,26.1203582 12.3786269,26.1203582 Z M17.0296119,26 L17.0296119,19.8617313 L16.1011343,19.8617313 L16.1011343,26 L17.0296119,26 Z M20.494209,26.1203582 C21.2679403,26.1203582 21.8697313,25.9656119 22.2995821,25.6561194 C22.7294328,25.3380299 22.9443582,24.9081791 22.9443582,24.3579701 C22.9443582,23.7905672 22.6778507,23.3521194 22.1534328,23.0340299 C21.9127164,22.8878806 21.3711045,22.6901493 20.545791,22.4322388 C19.969791,22.2602985 19.6173134,22.1313433 19.4797612,22.0539701 C19.1702687,21.8906269 19.0241194,21.6757015 19.0241194,21.400597 C19.0241194,21.0911045 19.1530746,20.8675821 19.4195821,20.7300299 C19.6345075,20.6096716 19.944,20.5494925 20.3480597,20.5494925 C20.8122985,20.5494925 21.1561791,20.6354627 21.3968955,20.816 C21.6376119,20.9879403 21.7923582,21.2802388 21.8783284,21.6757015 L22.806806,21.6757015 C22.7466269,21.0051343 22.5059104,20.5151045 22.0760597,20.1970149 C21.672,19.8875224 21.113194,19.7413731 20.3996418,19.7413731 C19.7462687,19.7413731 19.2046567,19.8875224 18.774806,20.1798209 C18.3191642,20.4893134 18.0956418,20.9105672 18.0956418,21.4521791 C18.0956418,21.985194 18.3277612,22.3978507 18.800597,22.6815522 C18.9897313,22.7847164 19.4539701,22.9480597 20.2105075,23.1887761 C20.8896716,23.3951045 21.2937313,23.5326567 21.4312836,23.6014328 C21.8181493,23.7991642 22.0158806,24.0656716 22.0158806,24.4095522 C22.0158806,24.6846567 21.8783284,24.8995821 21.6032239,25.0543284 C21.3281194,25.2090746 20.9584478,25.2950448 20.494209,25.2950448 C19.9783881,25.2950448 19.6001194,25.2004776 19.350806,25.0113433 C19.0757015,24.8050149 18.9037612,24.4525373 18.8349851,23.9711045 L17.9065075,23.9711045 C17.9580896,24.7448358 18.233194,25.3122388 18.7404179,25.6733134 C19.1616716,25.9656119 19.7462687,26.1203582 20.494209,26.1203582 Z" id="GIS" fill="#FFFFFF"></path>
                    <path d="M3.1885542,17.512453 L3.1885542,14.3283764 L0.0044776166,17.512453 L3.1885542,17.512453 Z M28.6611667,17.512453 L28.6930075,14.3283764 L31.8611637,17.512453 L28.6611667,17.512453 Z" id="形状" fill="#8601B1"></path>
                    <path d="M28.6611667,10.2049972 L28.6611667,10.4278826 L20.0482396,10.4278826 C19.1689812,10.4278826 18.4562013,9.71510278 18.4562013,8.83584432 L18.4562013,5.1882928e-06 C18.8793699,-0.00241474268 19.2861009,0.163714842 19.5865485,0.461722938 L28.215396,9.07465007 C28.5075806,9.37768192 28.6678577,9.78409898 28.6611667,10.2049972 L28.6611667,10.2049972 Z" id="路径" fill="#D7DDE6"></path>
                </g>
            </g>
        </g>
    </g>
</svg>