<?xml version="1.0" encoding="UTF-8"?>
<svg width="56px" height="64px" viewBox="0 0 56 64" version="1.1" xmlns="http://www.w3.org/2000/svg" xmlns:xlink="http://www.w3.org/1999/xlink">
    <!-- Generator: Sketch 63 (92445) - https://sketch.com -->
    <title>其他</title>
    <desc>Created with Sketch.</desc>
    <defs>
        <circle id="path-1" cx="34" cy="32" r="2"></circle>
    </defs>
    <g id="页面-1" stroke="none" stroke-width="1" fill="none" fill-rule="evenodd">
        <g id="icon" transform="translate(-1298.000000, -387.000000)">
            <g id="其他" transform="translate(1294.000000, 387.000000)">
                <g>
                    <rect id="矩形" x="0" y="0" width="64" height="64"></rect>
                    <g id="驾驶-操控-方向-主导" transform="translate(4.000000, 0.000000)">
                        <g id="编组" fill="#0A104A" fill-rule="nonzero">
                            <path d="M49.324603,52 C48.9018848,51.9968588 48.5332856,51.710765 48.4238737,51.3008806 C48.3144618,50.8909963 48.4911724,50.4582272 48.8556934,50.2433423 L52.4869293,48.1383714 C53.4960228,47.5509376 54.1243616,46.4607961 54.1243616,45.291577 L54.1243616,18.5426304 C54.1243616,17.3734112 53.4960228,16.2832698 52.4869293,15.695836 L29.4090747,2.32230407 C28.3954151,1.73662106 27.1478697,1.73662106 26.1342101,2.32230407 L18,7 C17.5514612,7.2599605 16.9779106,7.1056991 16.718939,6.65544751 C16.4599674,6.20519592 16.613642,5.62945527 17.0621808,5.36949477 L25.1963909,0.691798836 C26.7902725,-0.230599612 28.7530124,-0.230599612 30.3468939,0.691798836 L53.4247485,14.0672136 C55.0157033,14.9923848 55.9965628,16.6969775 56,18.5426304 L56,45.2934598 C56,47.1329559 55.0134142,48.8481872 53.4247485,49.7688766 L49.7935126,51.8738476 C49.6511558,51.9569824 49.489297,52.0005262 49.324603,52 Z" id="路径"></path>
                            <path d="M14.5009412,13 C12.0167345,12.9979257 10.0031135,10.9851468 10,8.50094123 C10.0031115,6.01642998 12.01643,4.00311148 14.5009412,4 C16.9851468,4.00311348 18.9979257,6.01673452 19,8.50094123 C18.9968885,10.9844128 16.9844128,12.9968885 14.5009412,13 L14.5009412,13 Z M14.5009412,5.8843311 C13.440587,5.8828106 12.4838302,6.52048091 12.0771702,7.49975665 C11.6705102,8.4790324 11.8941131,9.60686609 12.6436278,10.3569201 C13.3931426,11.1069741 14.5208152,11.331388 15.5003831,10.9254323 C16.4799511,10.5194767 17.1183093,9.5631787 17.1175493,8.50282368 C17.1175493,7.05898348 15.9447814,5.8843311 14.5009412,5.8843311 L14.5009412,5.8843311 Z" id="形状"></path>
                            <path d="M28.2274955,64 C27.3365945,64 26.447569,63.7702981 25.6523226,63.3090126 L2.57517284,49.9336171 C0.984266609,49.0084471 0.00343711389,47.3038569 0,45.4582067 L0,18.7074155 C0,16.8679221 0.986555656,15.1526933 2.57517284,14.2320051 L6.20629785,12.12892 C6.42121032,12.0020254 6.6778705,11.9670432 6.91870748,12.0318203 C7.15954445,12.0965974 7.36439868,12.2557115 7.48731973,12.473472 C7.61269363,12.6894543 7.64696279,12.9467513 7.58251519,13.1882107 C7.51806759,13.4296701 7.36023948,13.6352993 7.14408839,13.7594229 L3.51296339,15.862508 C2.502048,16.4519716 1.87871095,17.5357197 1.8755811,18.7092983 L1.8755811,45.4600895 C1.8755811,46.6293069 2.50390076,47.7194468 3.51296339,48.3068798 L26.5901132,61.6822753 C27.6037418,62.2679575 28.8512492,62.2679575 29.8648778,61.6822753 L38.5919566,56.6231976 C38.8071111,56.4973413 39.0634218,56.4629403 39.3039558,56.5276359 C39.5444897,56.5923315 39.7493307,56.7507669 39.8729785,56.9677496 C39.9983524,57.183732 40.0326216,57.4410289 39.968174,57.6824883 C39.9037264,57.9239478 39.7458983,58.129577 39.5297472,58.2537005 L30.8026683,63.3127782 C30.0187207,63.7635019 29.1309174,64 28.2274955,64 L28.2274955,64 Z" id="路径"></path>
                            <path d="M42.4990588,60 C40.0155872,59.9968885 38.0031115,57.9844128 38,55.5009412 C38.0020743,53.0167345 40.0148532,51.0031135 42.4990588,51 C44.98357,51.0031115 46.9968885,53.01643 47,55.5009412 C46.9968865,57.9851468 44.9832655,59.9979257 42.4990588,60 L42.4990588,60 Z M42.4990588,52.8843338 C41.1006611,52.9493053 40.0003014,54.1019762 40.0003014,55.5018825 C40.0003014,56.9017887 41.1006611,58.0544596 42.4990588,58.1194311 C43.8974565,58.0544596 44.9978161,56.9017887 44.9978161,55.5018825 C44.9978161,54.1019762 43.8974565,52.9493053 42.4990588,52.8843338 L42.4990588,52.8843338 Z" id="形状"></path>
                        </g>
                        <circle id="椭圆形" stroke="#0253FF" stroke-width="2" cx="28" cy="32" r="15"></circle>
                        <circle id="椭圆形" fill="#0253FF" cx="22" cy="32" r="2"></circle>
                        <circle id="椭圆形备份" fill="#00DFFF" cx="28" cy="32" r="2"></circle>
                        <g id="椭圆形备份-2">
                            <use fill="#FF902C" xlink:href="#path-1"></use>
                            <use fill="#0253FF" xlink:href="#path-1"></use>
                        </g>
                    </g>
                </g>
            </g>
        </g>
    </g>
</svg>