<?xml version="1.0" encoding="UTF-8"?>
<svg width="56px" height="64px" viewBox="0 0 56 64" version="1.1" xmlns="http://www.w3.org/2000/svg" xmlns:xlink="http://www.w3.org/1999/xlink">
    <!-- Generator: Sketch 63 (92445) - https://sketch.com -->
    <title>人脸识别</title>
    <desc>Created with Sketch.</desc>
    <g id="页面-1" stroke="none" stroke-width="1" fill="none" fill-rule="evenodd">
        <g id="icon" transform="translate(-946.000000, -47.000000)">
            <g id="人脸识别" transform="translate(942.000000, 47.000000)">
                <g>
                    <rect id="矩形" x="0" y="0" width="64" height="64"></rect>
                    <g id="编组-5" transform="translate(4.000000, 0.000000)" fill="#0A104A" fill-rule="nonzero">
                        <path d="M49.324603,52 C48.9018848,51.9968588 48.5332856,51.710765 48.4238737,51.3008806 C48.3144618,50.8909963 48.4911724,50.4582272 48.8556934,50.2433423 L52.4869293,48.1383714 C53.4960228,47.5509376 54.1243616,46.4607961 54.1243616,45.291577 L54.1243616,18.5426304 C54.1243616,17.3734112 53.4960228,16.2832698 52.4869293,15.695836 L29.4090747,2.32230407 C28.3954151,1.73662106 27.1478697,1.73662106 26.1342101,2.32230407 L18,7 C17.5514612,7.2599605 16.9779106,7.1056991 16.718939,6.65544751 C16.4599674,6.20519592 16.613642,5.62945527 17.0621808,5.36949477 L25.1963909,0.691798836 C26.7902725,-0.230599612 28.7530124,-0.230599612 30.3468939,0.691798836 L53.4247485,14.0672136 C55.0157033,14.9923848 55.9965628,16.6969775 56,18.5426304 L56,45.2934598 C56,47.1329559 55.0134142,48.8481872 53.4247485,49.7688766 L49.7935126,51.8738476 C49.6511558,51.9569824 49.489297,52.0005262 49.324603,52 Z" id="路径"></path>
                        <path d="M14.5009412,13 C12.0167345,12.9979257 10.0031135,10.9851468 10,8.50094123 C10.0031115,6.01642998 12.01643,4.00311148 14.5009412,4 C16.9851468,4.00311348 18.9979257,6.01673452 19,8.50094123 C18.9968885,10.9844128 16.9844128,12.9968885 14.5009412,13 L14.5009412,13 Z M14.5009412,5.8843311 C13.440587,5.8828106 12.4838302,6.52048091 12.0771702,7.49975665 C11.6705102,8.4790324 11.8941131,9.60686609 12.6436278,10.3569201 C13.3931426,11.1069741 14.5208152,11.331388 15.5003831,10.9254323 C16.4799511,10.5194767 17.1183093,9.5631787 17.1175493,8.50282368 C17.1175493,7.05898348 15.9447814,5.8843311 14.5009412,5.8843311 L14.5009412,5.8843311 Z" id="形状"></path>
                        <path d="M28.2274955,64 C27.3365945,64 26.447569,63.7702981 25.6523226,63.3090126 L2.57517284,49.9336171 C0.984266609,49.0084471 0.00343711389,47.3038569 0,45.4582067 L0,18.7074155 C0,16.8679221 0.986555656,15.1526933 2.57517284,14.2320051 L6.20629785,12.12892 C6.42121032,12.0020254 6.6778705,11.9670432 6.91870748,12.0318203 C7.15954445,12.0965974 7.36439868,12.2557115 7.48731973,12.473472 C7.61269363,12.6894543 7.64696279,12.9467513 7.58251519,13.1882107 C7.51806759,13.4296701 7.36023948,13.6352993 7.14408839,13.7594229 L3.51296339,15.862508 C2.502048,16.4519716 1.87871095,17.5357197 1.8755811,18.7092983 L1.8755811,45.4600895 C1.8755811,46.6293069 2.50390076,47.7194468 3.51296339,48.3068798 L26.5901132,61.6822753 C27.6037418,62.2679575 28.8512492,62.2679575 29.8648778,61.6822753 L38.5919566,56.6231976 C38.8071111,56.4973413 39.0634218,56.4629403 39.3039558,56.5276359 C39.5444897,56.5923315 39.7493307,56.7507669 39.8729785,56.9677496 C39.9983524,57.183732 40.0326216,57.4410289 39.968174,57.6824883 C39.9037264,57.9239478 39.7458983,58.129577 39.5297472,58.2537005 L30.8026683,63.3127782 C30.0187207,63.7635019 29.1309174,64 28.2274955,64 L28.2274955,64 Z" id="路径"></path>
                        <path d="M42.4990588,60 C40.0155872,59.9968885 38.0031115,57.9844128 38,55.5009412 C38.0020743,53.0167345 40.0148532,51.0031135 42.4990588,51 C44.98357,51.0031115 46.9968885,53.01643 47,55.5009412 C46.9968865,57.9851468 44.9832655,59.9979257 42.4990588,60 L42.4990588,60 Z M42.4990588,52.8843338 C41.1006611,52.9493053 40.0003014,54.1019762 40.0003014,55.5018825 C40.0003014,56.9017887 41.1006611,58.0544596 42.4990588,58.1194311 C43.8974565,58.0544596 44.9978161,56.9017887 44.9978161,55.5018825 C44.9978161,54.1019762 43.8974565,52.9493053 42.4990588,52.8843338 L42.4990588,52.8843338 Z" id="形状"></path>
                    </g>
                    <g id="文本识别" transform="translate(17.500000, 16.500000)" fill-rule="nonzero">
                        <path d="M28.4642823,18.4530705 C28.9645163,18.4529038 29.3933829,18.8102926 29.483425,19.3023561 L29.4999964,19.4887846 L29.4999964,23.9754978 C29.5003899,26.8909597 27.2351715,29.304895 24.3255685,29.4896393 L23.9754971,29.4999982 L19.4887834,29.4999982 C18.9523061,29.500984 18.5038723,29.0921496 18.455399,28.5578658 C18.4069257,28.023582 18.7744594,27.5407183 19.3023548,27.4451398 L19.4887834,27.4285684 L23.9754971,27.4285684 C25.7817826,27.4285684 27.2649253,26.0407116 27.4140681,24.2737834 L27.4285681,23.9754978 L27.4285681,19.4887846 C27.4285681,18.9167755 27.8922731,18.4530705 28.4642823,18.4530705 L28.4642823,18.4530705 Z M1.53571416,18.4530705 C2.03594817,18.4529038 2.46481479,18.8102926 2.55485689,19.3023561 L2.57142832,19.4887846 L2.57142832,23.9754978 C2.57142832,25.7817831 3.95928529,27.2649256 5.72621364,27.4140684 L6.02449932,27.4285684 L10.5112131,27.4285684 C11.0476904,27.4275808 11.4961241,27.8364152 11.5445974,28.370699 C11.5930708,28.9049828 11.2255371,29.3878465 10.6976416,29.483425 L10.5112131,29.4999964 L6.02449932,29.4999964 C3.10903709,29.5003899 0.695101442,27.2351718 0.510357142,24.3255691 L0.5,23.9754978 L0.5,19.4887846 C0.5,18.9167755 0.963705024,18.4530705 1.53571416,18.4530705 Z M23.9754971,0.500003564 C26.8909593,0.499610133 29.304895,2.76482821 29.4896393,5.67443086 L29.4999982,6.02450221 L29.4999982,10.5112154 C29.500984,11.0476926 29.0921495,11.4961263 28.5578657,11.5445996 C28.0235818,11.593073 27.540718,11.2255393 27.4451395,10.6976439 L27.4285681,10.5112154 L27.4285681,6.02450221 C27.4285681,4.21821694 26.0407111,2.73507444 24.2737828,2.58593162 L23.9754971,2.57143163 L19.4887834,2.57143163 C18.9523061,2.57241923 18.5038723,2.16358476 18.455399,1.62930099 C18.4069257,1.09501722 18.7744594,0.612153455 19.3023548,0.516574989 L19.4887834,0.500003564 L23.9754971,0.500003564 Z M10.5112131,0.500001779 C11.0476904,0.499015962 11.4961241,0.907850434 11.5445974,1.4421342 C11.5930708,1.97641797 11.2255371,2.45928174 10.6976416,2.5548602 L10.5112131,2.57143163 L6.02449932,2.57143163 C4.21821383,2.57143163 2.73507115,3.95928843 2.58592832,5.72621657 L2.57142832,6.02450221 L2.57142832,10.5112154 C2.57241592,11.0476926 2.1635814,11.4961263 1.62929756,11.5445996 C1.09501373,11.593073 0.612149904,11.2255393 0.516571427,10.6976439 L0.5,10.5112154 L0.5,6.02450221 C0.499606568,3.10904034 2.76482492,0.695104983 5.67442794,0.510360705 L6.02449932,0.500001779 L10.5112131,0.500001779 Z" id="形状" fill="#0253FF"></path>
                        <g id="人脸识别-(2)" transform="translate(0.500000, 0.500000)">
                            <path d="M23.8214234,12.428571 C24.3934324,12.428571 24.8571373,12.8922759 24.8571373,13.4642849 C24.8571373,14.0362939 24.3934324,14.4999989 23.8214234,14.4999989 L21.694067,14.4999989 C21.4206385,17.0022838 20.1715676,19.1710688 18.3797825,20.4698541 C21.0809244,21.5677109 23.4340664,23.7427101 24.8115658,26.4148521 L24.9109944,26.6178521 C26.0150654,26.1124237 26.8084223,25.039424 26.9161365,23.7737816 L26.9285651,23.4754959 L26.9285651,18.9887831 C26.9275775,18.4523059 27.3364119,18.0038723 27.8706956,17.955399 C28.4049793,17.9069256 28.887843,18.2744592 28.9834215,18.8023546 L29.0000018,18.9887831 L29.0000018,23.4754959 C29.0003863,26.3909576 26.7351685,28.8048928 23.8255662,28.989637 L23.4754949,28.9999959 L18.9887823,28.9999959 C18.4523051,29.0009818 18.0038715,28.5921473 17.9553982,28.0578636 C17.9069248,27.5235799 18.2744584,27.0407161 18.8023538,26.9451377 L18.9887823,26.928571 L22.7318523,26.928571 C20.991853,23.906353 17.7355685,21.7499965 14.5000018,21.7499965 C11.1753566,21.7499965 7.8237864,23.9167101 6.1107156,26.928571 L10.0112142,26.928571 C10.5476913,26.9275787 10.996125,27.3364131 11.0445983,27.8706968 C11.0930716,28.4049805 10.725538,28.8878443 10.1976427,28.9834227 L10.0112142,28.9999959 L5.52450153,28.9999959 C2.60904002,29.0003876 0.195104959,26.7351697 0.0103607035,23.8255673 L1.77901963e-06,23.4754959 L1.77901963e-06,18.9887831 C-0.000984037436,18.4523059 0.407850384,18.0038723 0.942134088,17.955399 C1.47641779,17.9069256 1.9592815,18.2744592 2.05485995,18.8023546 L2.07143137,18.9887831 L2.07143137,23.4754959 C2.07143137,24.8219241 2.84200252,25.9902094 3.96885924,26.5598521 L3.8238593,26.864352 C5.12885882,23.9684958 7.66221503,21.6029251 10.5932854,20.4449969 C8.81600032,19.1503545 7.57935791,16.9898552 7.30592944,14.4999989 L5.17857308,14.4999989 C4.60656409,14.4999989 4.14285918,14.0362939 4.14285918,13.4642849 C4.14285918,12.8922759 4.60656409,12.428571 5.17857308,12.428571 L23.8214234,12.428571 Z M19.6060678,14.4999989 L9.39392867,14.4999989 C9.80821424,17.4621408 11.966642,19.6785686 14.4999982,19.6785686 C17.0333544,19.6785686 19.1917822,17.4621408 19.6060678,14.4999989 Z" id="形状" fill="#0253FF"></path>
                            <path d="M14.4999982,5.17857331 C17.5657114,5.17857331 20.1549961,7.33285833 21.2238529,10.3571431 L18.9867109,10.3571431 C18.0835683,8.49285795 16.3953547,7.25000121 14.4999982,7.25000121 C12.6046418,7.25000121 10.9164281,8.49285795 10.015357,10.3571431 L7.77821498,10.3571431 C8.8450003,7.33285833 11.4301422,5.17857331 14.4999982,5.17857331 Z" id="路径" fill="#00DFFF"></path>
                            <path d="M27.9442824,18.0001788 L28.0578624,18.0042916 C28.5921461,18.0527649 29.0009805,18.5011986 28.9999947,19.0376758 L28.9999947,19.0376758 L28.9999947,23.5243886 L28.9896357,23.8744599 C28.8048915,26.7840624 26.3909564,29.0492803 23.4754949,29.0488868 L23.4754949,29.0488868 L18.9887823,29.0488868 L18.8023538,29.0323154 C18.2744584,28.9367369 17.9069248,28.4538732 17.9553982,27.9195895 C18.0038715,27.3853058 18.4523051,26.9764713 18.9887823,26.9774589 L18.9887823,26.9774589 L23.4754949,26.9774589 L23.7737805,26.9629589 C25.5407084,26.8138161 26.9285651,25.3306737 26.9285651,23.5243886 L26.9285651,23.5243886 L26.9285651,19.0376758 L26.9451365,18.8512473 C27.0407149,18.3233519 27.5235786,17.9558183 28.0578624,18.0042916 Z M1.01572092,18.000177 L1.12930085,18.0042898 C1.66358455,18.0527632 2.07241897,18.5011968 2.07143137,19.037674 L2.07143137,19.037674 L2.07143137,23.5243868 L2.08593137,23.8226724 C2.23507417,25.5896004 3.71821648,26.9774571 5.52450153,26.9774571 L5.52450153,26.9774571 L10.0112142,26.9774571 L10.1976427,26.9940286 C10.725538,27.089607 11.0930716,27.5724707 11.0445983,28.1067545 C10.996125,28.6410382 10.5476913,29.0498726 10.0112142,29.0488868 L10.0112142,29.0488868 L5.52450153,29.0488868 L5.17443023,29.0385279 C2.26482793,28.8537836 -0.000389867133,26.4398485 3.56448341e-06,23.5243868 L3.56448341e-06,23.5243868 L3.56448341e-06,19.037674 L0.0165749869,18.8512455 C0.112153441,18.3233501 0.595017144,17.9558165 1.12930085,18.0042898 Z M23.4754949,3.56448366e-06 C26.3909564,-0.00038986715 28.8048915,2.26482803 28.9896357,5.17443046 L28.9999947,5.52450177 L28.9999947,10.0112146 C29.0009805,10.5476918 28.5921461,10.9961254 28.0578624,11.0445988 C27.5235786,11.0930721 27.0407149,10.7255385 26.9451365,10.1976431 L26.9285651,10.0112146 L26.9285651,5.52450177 C26.9285651,3.71821664 25.5407084,2.23507427 23.7737805,2.08593146 L23.4754949,2.07143146 L18.9887823,2.07143146 C18.4523051,2.07241907 18.0038715,1.66358463 17.9553982,1.1293009 C17.9069248,0.59501717 18.2744584,0.112153446 18.8023538,0.0165749877 L18.9887823,3.56448366e-06 L23.4754949,3.56448366e-06 Z M10.0112142,1.77902051e-06 C10.5476913,-0.000984037478 10.996125,0.407850402 11.0445983,0.94213413 C11.0930716,1.47641786 10.725538,1.95928158 10.1976427,2.05486004 L10.0112142,2.07143146 L5.52450153,2.07143146 C3.71821648,2.07143146 2.23507417,3.45928816 2.08593137,5.22621615 L2.07143137,5.52450177 L2.07143137,10.0112146 C2.07241897,10.5476918 1.66358455,10.9961254 1.12930085,11.0445988 C0.595017144,11.0930721 0.112153441,10.7255385 0.0165749869,10.1976431 L3.56448341e-06,10.0112146 L3.56448341e-06,5.52450177 C-0.000389867133,2.60904013 2.26482793,0.195104967 5.17443023,0.010360704 L5.52450153,1.77902051e-06 L10.0112142,1.77902051e-06 Z" id="形状结合" fill="#0253FF"></path>
                        </g>
                    </g>
                </g>
            </g>
        </g>
    </g>
</svg>