<?xml version="1.0" encoding="UTF-8"?>
<svg width="30px" height="31px" viewBox="0 0 30 31" version="1.1" xmlns="http://www.w3.org/2000/svg" xmlns:xlink="http://www.w3.org/1999/xlink">
    <title>编组</title>
    <g id="页面-1" stroke="none" stroke-width="1" fill="none" fill-rule="evenodd">
        <g id="数据分类目录" transform="translate(-256.000000, -712.000000)">
            <g id="编组-11备份-9" transform="translate(240.000000, 696.000000)">
                <g id="编组" transform="translate(16.000000, 16.000000)">
                    <path d="M15.0093168,18.7826087 C20.9674666,18.7826087 25.9314914,23.0389641 27.0266269,28.6769105 L2.99200668,28.6769105 C4.08714212,23.0389641 9.05116691,18.7826087 15.0093168,18.7826087 Z" id="形状结合" fill="#E6ECFF" fill-rule="nonzero"></path>
                    <path d="M22.8074534,0 L7.37888199,0 C5.61911754,0 4.19254658,1.42657095 4.19254658,3.1863354 L4.19254658,12.242236 C4.19254658,14.0020005 5.61911754,15.4285714 7.37888199,15.4285714 L22.8074534,15.4285714 C24.5672179,15.4285714 25.9937888,14.0020005 25.9937888,12.242236 L25.9937888,3.1863354 C25.9937888,1.42657095 24.5672179,0 22.8074534,0 Z M7.37888199,1.67701863 L22.8074534,1.67701863 C23.6410261,1.67701863 24.3167702,2.35276277 24.3167702,3.1863354 L24.3167702,12.242236 C24.3167702,13.0758087 23.6410261,13.7515528 22.8074534,13.7515528 L7.37888199,13.7515528 C6.54530935,13.7515528 5.86956522,13.0758087 5.86956522,12.242236 L5.86956522,3.1863354 C5.86956522,2.35276277 6.54530935,1.67701863 7.37888199,1.67701863 Z" id="矩形" fill="#396AFF" fill-rule="nonzero"></path>
                    <rect id="矩形" fill="#F2F2F5" x="5.86956522" y="1.67701863" width="18.447205" height="12.0745342" rx="1.34161491"></rect>
                    <rect id="矩形" fill="#396AFF" x="8.38509317" y="4.19254658" width="13.4161491" height="7.04347826" rx="1.17391304"></rect>
                    <rect id="矩形" fill="#7D9DFF" x="14.2546584" y="11.2360248" width="1.67701863" height="17.4409938"></rect>
                    <circle id="椭圆形" fill="#396AFF" cx="15.0931677" cy="28.6770186" r="2.18012422"></circle>
                    <path d="M15.0093168,17.1055901 C21.8964198,17.1055901 27.6152719,22.1074665 28.7313438,28.67669 L27.0266269,28.6769105 C25.9314914,23.0389641 20.9674666,18.7826087 15.0093168,18.7826087 C9.05116691,18.7826087 4.08714212,23.0389641 2.99200668,28.6769105 L1.28728974,28.67669 C2.40336159,22.1074665 8.12221376,17.1055901 15.0093168,17.1055901 Z" id="形状结合" fill="#7D9DFF" fill-rule="nonzero"></path>
                    <circle id="椭圆形备份-3" fill="#396AFF" cx="27.6708075" cy="28.6770186" r="2.18012422"></circle>
                    <circle id="椭圆形备份-2" fill="#396AFF" cx="2.18012422" cy="28.6770186" r="2.18012422"></circle>
                </g>
            </g>
        </g>
    </g>
</svg>