<?xml version="1.0" encoding="UTF-8"?>
<svg width="56px" height="64px" viewBox="0 0 56 64" version="1.1" xmlns="http://www.w3.org/2000/svg" xmlns:xlink="http://www.w3.org/1999/xlink">
    <!-- Generator: Sketch 63 (92445) - https://sketch.com -->
    <title>文字识别</title>
    <desc>Created with Sketch.</desc>
    <g id="页面-1" stroke="none" stroke-width="1" fill="none" fill-rule="evenodd">
        <g id="icon" transform="translate(-770.000000, -47.000000)">
            <g id="文字识别" transform="translate(766.000000, 47.000000)">
                <g>
                    <rect id="矩形" x="0" y="0" width="64" height="64"></rect>
                    <g id="编组-5" transform="translate(4.000000, 0.000000)" fill="#0A104A" fill-rule="nonzero">
                        <path d="M49.324603,52 C48.9018848,51.9968588 48.5332856,51.710765 48.4238737,51.3008806 C48.3144618,50.8909963 48.4911724,50.4582272 48.8556934,50.2433423 L52.4869293,48.1383714 C53.4960228,47.5509376 54.1243616,46.4607961 54.1243616,45.291577 L54.1243616,18.5426304 C54.1243616,17.3734112 53.4960228,16.2832698 52.4869293,15.695836 L29.4090747,2.32230407 C28.3954151,1.73662106 27.1478697,1.73662106 26.1342101,2.32230407 L18,7 C17.5514612,7.2599605 16.9779106,7.1056991 16.718939,6.65544751 C16.4599674,6.20519592 16.613642,5.62945527 17.0621808,5.36949477 L25.1963909,0.691798836 C26.7902725,-0.230599612 28.7530124,-0.230599612 30.3468939,0.691798836 L53.4247485,14.0672136 C55.0157033,14.9923848 55.9965628,16.6969775 56,18.5426304 L56,45.2934598 C56,47.1329559 55.0134142,48.8481872 53.4247485,49.7688766 L49.7935126,51.8738476 C49.6511558,51.9569824 49.489297,52.0005262 49.324603,52 Z" id="路径"></path>
                        <path d="M14.5009412,13 C12.0167345,12.9979257 10.0031135,10.9851468 10,8.50094123 C10.0031115,6.01642998 12.01643,4.00311148 14.5009412,4 C16.9851468,4.00311348 18.9979257,6.01673452 19,8.50094123 C18.9968885,10.9844128 16.9844128,12.9968885 14.5009412,13 L14.5009412,13 Z M14.5009412,5.8843311 C13.440587,5.8828106 12.4838302,6.52048091 12.0771702,7.49975665 C11.6705102,8.4790324 11.8941131,9.60686609 12.6436278,10.3569201 C13.3931426,11.1069741 14.5208152,11.331388 15.5003831,10.9254323 C16.4799511,10.5194767 17.1183093,9.5631787 17.1175493,8.50282368 C17.1175493,7.05898348 15.9447814,5.8843311 14.5009412,5.8843311 L14.5009412,5.8843311 Z" id="形状"></path>
                        <path d="M28.2274955,64 C27.3365945,64 26.447569,63.7702981 25.6523226,63.3090126 L2.57517284,49.9336171 C0.984266609,49.0084471 0.00343711389,47.3038569 0,45.4582067 L0,18.7074155 C0,16.8679221 0.986555656,15.1526933 2.57517284,14.2320051 L6.20629785,12.12892 C6.42121032,12.0020254 6.6778705,11.9670432 6.91870748,12.0318203 C7.15954445,12.0965974 7.36439868,12.2557115 7.48731973,12.473472 C7.61269363,12.6894543 7.64696279,12.9467513 7.58251519,13.1882107 C7.51806759,13.4296701 7.36023948,13.6352993 7.14408839,13.7594229 L3.51296339,15.862508 C2.502048,16.4519716 1.87871095,17.5357197 1.8755811,18.7092983 L1.8755811,45.4600895 C1.8755811,46.6293069 2.50390076,47.7194468 3.51296339,48.3068798 L26.5901132,61.6822753 C27.6037418,62.2679575 28.8512492,62.2679575 29.8648778,61.6822753 L38.5919566,56.6231976 C38.8071111,56.4973413 39.0634218,56.4629403 39.3039558,56.5276359 C39.5444897,56.5923315 39.7493307,56.7507669 39.8729785,56.9677496 C39.9983524,57.183732 40.0326216,57.4410289 39.968174,57.6824883 C39.9037264,57.9239478 39.7458983,58.129577 39.5297472,58.2537005 L30.8026683,63.3127782 C30.0187207,63.7635019 29.1309174,64 28.2274955,64 L28.2274955,64 Z" id="路径"></path>
                        <path d="M42.4990588,60 C40.0155872,59.9968885 38.0031115,57.9844128 38,55.5009412 C38.0020743,53.0167345 40.0148532,51.0031135 42.4990588,51 C44.98357,51.0031115 46.9968885,53.01643 47,55.5009412 C46.9968865,57.9851468 44.9832655,59.9979257 42.4990588,60 L42.4990588,60 Z M42.4990588,52.8843338 C41.1006611,52.9493053 40.0003014,54.1019762 40.0003014,55.5018825 C40.0003014,56.9017887 41.1006611,58.0544596 42.4990588,58.1194311 C43.8974565,58.0544596 44.9978161,56.9017887 44.9978161,55.5018825 C44.9978161,54.1019762 43.8974565,52.9493053 42.4990588,52.8843338 L42.4990588,52.8843338 Z" id="形状"></path>
                    </g>
                    <g id="文本识别" transform="translate(17.500000, 16.500000)" fill-rule="nonzero">
                        <path d="M28.4642823,18.4530705 C28.9645163,18.4529038 29.3933829,18.8102926 29.483425,19.3023561 L29.4999964,19.4887846 L29.4999964,23.9754978 C29.5003899,26.8909597 27.2351715,29.304895 24.3255685,29.4896393 L23.9754971,29.4999982 L19.4887834,29.4999982 C18.9523061,29.500984 18.5038723,29.0921496 18.455399,28.5578658 C18.4069257,28.023582 18.7744594,27.5407183 19.3023548,27.4451398 L19.4887834,27.4285684 L23.9754971,27.4285684 C25.7817826,27.4285684 27.2649253,26.0407116 27.4140681,24.2737834 L27.4285681,23.9754978 L27.4285681,19.4887846 C27.4285681,18.9167755 27.8922731,18.4530705 28.4642823,18.4530705 L28.4642823,18.4530705 Z M1.53571416,18.4530705 C2.03594817,18.4529038 2.46481479,18.8102926 2.55485689,19.3023561 L2.57142832,19.4887846 L2.57142832,23.9754978 C2.57142832,25.7817831 3.95928529,27.2649256 5.72621364,27.4140684 L6.02449932,27.4285684 L10.5112131,27.4285684 C11.0476904,27.4275808 11.4961241,27.8364152 11.5445974,28.370699 C11.5930708,28.9049828 11.2255371,29.3878465 10.6976416,29.483425 L10.5112131,29.4999964 L6.02449932,29.4999964 C3.10903709,29.5003899 0.695101442,27.2351718 0.510357142,24.3255691 L0.5,23.9754978 L0.5,19.4887846 C0.5,18.9167755 0.963705024,18.4530705 1.53571416,18.4530705 Z M23.9754971,0.500003564 C26.8909593,0.499610133 29.304895,2.76482821 29.4896393,5.67443086 L29.4999982,6.02450221 L29.4999982,10.5112154 C29.500984,11.0476926 29.0921495,11.4961263 28.5578657,11.5445996 C28.0235818,11.593073 27.540718,11.2255393 27.4451395,10.6976439 L27.4285681,10.5112154 L27.4285681,6.02450221 C27.4285681,4.21821694 26.0407111,2.73507444 24.2737828,2.58593162 L23.9754971,2.57143163 L19.4887834,2.57143163 C18.9523061,2.57241923 18.5038723,2.16358476 18.455399,1.62930099 C18.4069257,1.09501722 18.7744594,0.612153455 19.3023548,0.516574989 L19.4887834,0.500003564 L23.9754971,0.500003564 Z M10.5112131,0.500001779 C11.0476904,0.499015962 11.4961241,0.907850434 11.5445974,1.4421342 C11.5930708,1.97641797 11.2255371,2.45928174 10.6976416,2.5548602 L10.5112131,2.57143163 L6.02449932,2.57143163 C4.21821383,2.57143163 2.73507115,3.95928843 2.58592832,5.72621657 L2.57142832,6.02450221 L2.57142832,10.5112154 C2.57241592,11.0476926 2.1635814,11.4961263 1.62929756,11.5445996 C1.09501373,11.593073 0.612149904,11.2255393 0.516571427,10.6976439 L0.5,10.5112154 L0.5,6.02450221 C0.499606568,3.10904034 2.76482492,0.695104983 5.67442794,0.510360705 L6.02449932,0.500001779 L10.5112131,0.500001779 Z" id="形状" fill="#0253FF"></path>
                        <path d="M22.2499973,8.78571581 C22.8220065,8.78571581 23.2857115,9.24942078 23.2857115,9.82142984 L23.2857115,11.8928579 C23.2857115,12.464867 22.8220065,12.9285719 22.2499973,12.9285719 C21.6779882,12.9285719 21.214285,12.464867 21.214285,11.8928579 L21.214285,10.8571439 L16.0357124,10.8571439 L16.0357124,22.2499982 C16.0357124,22.8220073 15.5720074,23.2857158 14.9999982,23.2857158 C14.4279891,23.2857158 13.9642841,22.8220073 13.9642841,22.2499982 L13.9642841,10.8571439 L8.78571327,10.8571439 L8.78571327,11.8928579 C8.78571327,12.464867 8.32200824,12.9285719 7.74999911,12.9285719 C7.17798997,12.9285719 6.71428495,12.464867 6.71428495,11.8928579 L6.71428495,9.82142984 C6.71428495,9.24942078 7.17798997,8.78571581 7.74999911,8.78571581 L22.2499973,8.78571581 Z" id="路径" fill="#00DFFF"></path>
                        <path d="M16.0357124,10.8571439 L16.0357124,22.2499982 C16.0357124,22.8220073 15.5720074,23.2857158 14.9999982,23.2857158 C14.4279891,23.2857158 13.9642841,22.8220073 13.9642841,22.2499982 L13.9642841,10.8571439 L16.0357124,10.8571439 Z" id="路径备份" fill="#00DFFF"></path>
                    </g>
                </g>
            </g>
        </g>
    </g>
</svg>