<?xml version="1.0" encoding="UTF-8"?>
<svg width="32px" height="34px" viewBox="0 0 32 34" version="1.1" xmlns="http://www.w3.org/2000/svg" xmlns:xlink="http://www.w3.org/1999/xlink">
    <title>Pdf备份 2</title>
    <g id="页面-1" stroke="none" stroke-width="1" fill="none" fill-rule="evenodd">
        <g id="数据分类目录" transform="translate(-623.000000, -258.000000)" fill-rule="nonzero">
            <g id="编组-11备份-5" transform="translate(608.000000, 244.000000)">
                <g id="Pdf备份-2" transform="translate(15.000000, 14.000000)">
                    <path d="M28.1948695,32.8604041 C27.8963044,33.1589692 27.4913633,33.3267014 27.0691284,33.3267014 L4.78059247,33.3267014 C4.35835766,33.3267014 3.95341649,33.1589692 3.6548514,32.8604041 C3.35628631,32.561839 3.1885542,32.1568979 3.1885542,31.7346631 L3.1885542,1.59207014 C3.1885542,1.16983533 3.35628631,0.764894159 3.6548514,0.466329059 C3.95341649,0.16776396 4.35835766,-0.000119791285 4.78059247,-0.000119791285 L18.4562013,-0.000119791285 C18.8793699,-0.00241474268 19.2861009,0.163714842 19.5865485,0.461722938 L28.1994756,9.07465007 C28.4974837,9.37509767 28.6636133,9.78182872 28.6613184,10.2049972 L28.6613184,31.7346631 C28.6613184,32.1568979 28.4934346,32.561839 28.1948695,32.8604041 Z" id="路径" fill="#F2F2F5"></path>
                    <path d="M31.8452433,17.512453 L31.8452433,27.4726444 C31.8452433,27.8948792 31.6775112,28.2998204 31.3789461,28.5983855 C31.080381,28.8969506 30.6754398,29.0646827 30.253205,29.0646827 L1.59651589,29.0646827 C1.17428108,29.0646827 0.769339913,28.8969506 0.47077482,28.5983855 C0.172209726,28.2998204 0.0044776166,27.8948792 0.0044776166,27.4726444 L0.0044776166,17.512453 L31.8452433,17.512453 Z" id="路径" fill="#FC7B27"></path>
                    <path d="M3.1885542,17.512453 L3.1885542,14.3283764 L0.0044776166,17.512453 L3.1885542,17.512453 Z M28.6611667,17.512453 L28.6930075,14.3283764 L31.8611637,17.512453 L28.6611667,17.512453 Z" id="形状" fill="#D14D2C"></path>
                    <path d="M9.44997678,26.6849088 L9.44997678,24.4456517 L10.8965041,24.4456517 C12.3185141,24.4456517 13.0295191,23.8408889 13.0295191,22.6395357 C13.0295191,21.4463549 12.3185141,20.8497645 10.9128491,20.8497645 L8.49379768,20.8497645 L8.49379768,26.6849088 L9.44997678,26.6849088 Z M10.8392968,23.6284046 L9.44997678,23.6284046 L9.44997678,21.6670116 L10.8392968,21.6670116 C11.2560929,21.6670116 11.5666468,21.7405638 11.7627861,21.8958408 C11.9589254,22.0429453 12.0651675,22.2881194 12.0651675,22.6395357 C12.0651675,22.9909519 11.9670978,23.2442985 11.7709585,23.3995755 C11.5748192,23.5466799 11.2642653,23.6284046 10.8392968,23.6284046 Z M14.8029453,26.6849088 L14.8029453,24.4456517 L16.2494726,24.4456517 C17.6714826,24.4456517 18.3824876,23.8408889 18.3824876,22.6395357 C18.3824876,21.4463549 17.6714826,20.8497645 16.2658176,20.8497645 L13.8467662,20.8497645 L13.8467662,26.6849088 L14.8029453,26.6849088 Z M16.1922653,23.6284046 L14.8029453,23.6284046 L14.8029453,21.6670116 L16.1922653,21.6670116 C16.6090614,21.6670116 16.9196153,21.7405638 17.1157546,21.8958408 C17.3118939,22.0429453 17.418136,22.2881194 17.418136,22.6395357 C17.418136,22.9909519 17.3200663,23.2442985 17.123927,23.3995755 C16.9277877,23.5466799 16.6172338,23.6284046 16.1922653,23.6284046 Z M21.6187861,26.6849088 L21.6187861,21.6670116 L23.5311443,21.6670116 L23.5311443,20.8497645 L18.7502488,20.8497645 L18.7502488,21.6670116 L20.662607,21.6670116 L20.662607,26.6849088 L21.6187861,26.6849088 Z" id="PPT" fill="#FFFFFF"></path>
                    <path d="M28.6611667,10.2049972 L28.6611667,10.4278826 L20.0482396,10.4278826 C19.1689812,10.4278826 18.4562013,9.71510278 18.4562013,8.83584432 L18.4562013,5.1882928e-06 C18.8793699,-0.00241474268 19.2861009,0.163714842 19.5865485,0.461722938 L28.215396,9.07465007 C28.5075806,9.37768192 28.6678577,9.78409898 28.6611667,10.2049972 L28.6611667,10.2049972 Z" id="路径" fill="#D7DDE6"></path>
                </g>
            </g>
        </g>
    </g>
</svg>