<?xml version="1.0" encoding="UTF-8"?>
<svg width="30px" height="28px" viewBox="0 0 30 28" version="1.1" xmlns="http://www.w3.org/2000/svg" xmlns:xlink="http://www.w3.org/1999/xlink">
    <title>word备份</title>
    <g id="页面-1" stroke="none" stroke-width="1" fill="none" fill-rule="evenodd">
        <g id="数据分类目录--筛选项" transform="translate(-339.000000, -483.000000)" fill-rule="nonzero">
            <g id="编组-11备份-4" transform="translate(323.000000, 466.000000)">
                <g id="word备份" transform="translate(16.000000, 17.000000)">
                    <path d="M29.6442688,7.43036686 L29.6442688,1.25447751 C29.6442688,0.513370791 29.1501976,0.0192996638 28.4090909,0.0192996638 L8.64624507,0.0192996638 C7.90513835,0.0192996638 7.41106719,0.51337082 7.41106719,1.25447751 L7.41106719,7.43036686 L18.527668,9.90072258 L29.6442688,7.43036686 Z" id="路径" fill="#71C3FF"></path>
                    <polygon id="路径" fill="#4397F2" points="29.6442688 7.43036686 7.41106719 7.43036686 7.41106719 13.6062562 19.1452569 16.0766119 29.6442688 13.6062562"></polygon>
                    <polygon id="路径" fill="#2675EB" points="29.6442688 13.6062562 7.41106719 13.6062562 7.41106719 19.7821455 18.527668 21.6349123 29.6442688 19.7821455"></polygon>
                    <path d="M29.6442688,19.7821455 L7.41106719,19.7821455 L7.41106719,25.9580348 C7.41106719,26.6991416 7.90513835,27.1932127 8.64624507,27.1932127 L28.4090909,27.1932127 C29.1501976,27.1932127 29.6442688,26.6991415 29.6442688,25.9580348 L29.6442688,19.7821455 Z" id="路径" fill="#2A5DB7"></path>
                    <path d="M17.0454545,6.19518898 L7.41106719,6.19518898 L7.41106719,23.4876791 L16.798419,23.4876791 C17.6630435,23.4876791 18.527668,22.6230546 18.527668,21.7584301 L18.527668,7.67740242 C18.527668,6.81277791 17.9100791,6.19518898 17.0454545,6.19518898 Z" id="路径" fill="#0C2F73" opacity="0.5"></path>
                    <path d="M15.8102767,22.2525012 L1.48221344,22.2525012 C0.617588923,22.2525012 0,21.6349123 0,20.7702878 L0,6.44222455 C0,5.57760006 0.617588923,4.96001111 1.48221344,4.96001111 L15.9337945,4.96001111 C16.6749012,4.96001111 17.2924901,5.57760003 17.2924901,6.44222455 L17.2924901,20.8938056 C17.2924901,21.6349123 16.6749012,22.2525012 15.8102767,22.2525012 L15.8102767,22.2525012 Z" id="路径" fill="#2675EB"></path>
                    <polygon id="路径" fill="#FFFFFF" points="12.5988142 18.5469676 10.7460474 18.5469676 8.64624507 11.7534894 6.54644268 18.5469676 4.69367588 18.5469676 2.71739131 8.6655447 4.44664032 8.6655447 5.80533596 15.5825408 7.90513835 8.9125803 9.38735179 8.9125803 11.3636364 15.5825408 12.8458498 8.6655447 14.5750988 8.6655447 12.5988142 18.5469676"></polygon>
                </g>
            </g>
        </g>
    </g>
</svg>