<?xml version="1.0" encoding="UTF-8"?>
<svg width="32px" height="34px" viewBox="0 0 32 34" version="1.1" xmlns="http://www.w3.org/2000/svg" xmlns:xlink="http://www.w3.org/1999/xlink">
    <title>Pdf备份 3</title>
    <g id="页面-1" stroke="none" stroke-width="1" fill="none" fill-rule="evenodd">
        <g id="数据分类目录" transform="translate(-992.000000, -710.000000)" fill-rule="nonzero">
            <g id="编组-11备份-10" transform="translate(977.000000, 696.000000)">
                <g id="Pdf备份-3" transform="translate(15.000000, 14.000000)">
                    <path d="M28.1948695,32.8604041 C27.8963044,33.1589692 27.4913633,33.3267014 27.0691284,33.3267014 L4.78059247,33.3267014 C4.35835766,33.3267014 3.95341649,33.1589692 3.6548514,32.8604041 C3.35628631,32.561839 3.1885542,32.1568979 3.1885542,31.7346631 L3.1885542,1.59207014 C3.1885542,1.16983533 3.35628631,0.764894159 3.6548514,0.466329059 C3.95341649,0.16776396 4.35835766,-0.000119791285 4.78059247,-0.000119791285 L18.4562013,-0.000119791285 C18.8793699,-0.00241474268 19.2861009,0.163714842 19.5865485,0.461722938 L28.1994756,9.07465007 C28.4974837,9.37509767 28.6636133,9.78182872 28.6613184,10.2049972 L28.6613184,31.7346631 C28.6613184,32.1568979 28.4934346,32.561839 28.1948695,32.8604041 Z" id="路径" fill="#F2F2F5"></path>
                    <path d="M31.8452433,17.512453 L31.8452433,27.4726444 C31.8452433,27.8948792 31.6775112,28.2998204 31.3789461,28.5983855 C31.080381,28.8969506 30.6754398,29.0646827 30.253205,29.0646827 L1.59651589,29.0646827 C1.17428108,29.0646827 0.769339913,28.8969506 0.47077482,28.5983855 C0.172209726,28.2998204 0.0044776166,27.8948792 0.0044776166,27.4726444 L0.0044776166,17.512453 L31.8452433,17.512453 Z" id="路径" fill="#3CD08B"></path>
                    <path d="M3.1885542,17.512453 L3.1885542,14.3283764 L0.0044776166,17.512453 L3.1885542,17.512453 Z M28.6611667,17.512453 L28.6930075,14.3283764 L31.8611637,17.512453 L28.6611667,17.512453 Z" id="形状" fill="#2CAC6D"></path>
                    <path d="M9.29469983,26.6849088 L10.4388458,22.2962919 L10.4715357,22.2962919 L11.6075091,26.6849088 L12.6208955,26.6849088 L14.3044245,20.8497645 L13.2256584,20.8497645 L12.1305473,25.2874163 L12.0978574,25.2874163 L10.945539,20.8497645 L9.95666998,20.8497645 L8.80435158,25.2874163 L8.77166169,25.2874163 L7.67655058,20.8497645 L6.59778441,20.8497645 L8.27314096,26.6849088 L9.29469983,26.6849088 Z M15.873539,26.6849088 L15.873539,24.4456517 L17.3200663,24.4456517 C18.7420763,24.4456517 19.4530813,23.8408889 19.4530813,22.6395357 C19.4530813,21.4463549 18.7420763,20.8497645 17.3364113,20.8497645 L14.9173599,20.8497645 L14.9173599,26.6849088 L15.873539,26.6849088 Z M17.262859,23.6284046 L15.873539,23.6284046 L15.873539,21.6670116 L17.262859,21.6670116 C17.6796551,21.6670116 17.990209,21.7405638 18.1863483,21.8958408 C18.3824876,22.0429453 18.4887297,22.2881194 18.4887297,22.6395357 C18.4887297,22.9909519 18.39066,23.2442985 18.1945207,23.3995755 C17.9983814,23.5466799 17.6878275,23.6284046 17.262859,23.6284046 Z M22.4278607,26.7993234 C23.1715556,26.7993234 23.751801,26.6440464 24.1604245,26.3498375 C24.5690481,26.0474561 24.7733599,25.63066 24.7733599,25.1076219 C24.7733599,24.5682388 24.5200133,24.1514428 24.0133201,23.8490614 C23.7844909,23.7183018 23.2777977,23.5221625 22.485068,23.2769884 C21.9456849,23.1053665 21.6106136,22.9827794 21.4880265,22.9173997 C21.2101625,22.7702952 21.079403,22.5659834 21.079403,22.3208093 C21.079403,22.0429453 21.1938176,21.8386335 21.4389917,21.7160464 C21.635131,21.6098043 21.912995,21.5607695 22.2807562,21.5607695 C22.7057247,21.5607695 23.0326235,21.6343217 23.2451078,21.7977711 C23.457592,21.9530481 23.612869,22.2145672 23.6945937,22.5741559 L24.6426003,22.5741559 C24.585393,21.9367032 24.3483914,21.4626998 23.9397678,21.1603184 C23.5556617,20.8742819 23.0162786,20.7353499 22.329791,20.7353499 C21.7005108,20.7353499 21.1856451,20.8742819 20.7770216,21.1603184 C20.3357081,21.4545274 20.1232239,21.8631509 20.1232239,22.3780166 C20.1232239,22.8928823 20.3438806,23.2851609 20.7933665,23.5548524 C20.9649884,23.6529221 21.4144743,23.8163715 22.1336517,24.0452007 C22.7792769,24.24134 23.1552106,24.3720995 23.2696252,24.4293068 C23.6292139,24.6091012 23.8171808,24.8542753 23.8171808,25.1648292 C23.8171808,25.4100033 23.6864212,25.5979701 23.4412471,25.7450746 C23.196073,25.8840066 22.8528292,25.9575589 22.4278607,25.9575589 C21.9456849,25.9575589 21.5942687,25.8676617 21.3654395,25.7042123 C21.1120929,25.5162454 20.9568159,25.1975191 20.8914362,24.7562056 L19.9434295,24.7562056 C19.9842919,25.4999005 20.2539834,26.0392836 20.7443317,26.3825274 C21.1447828,26.6603914 21.7086833,26.7993234 22.4278607,26.7993234 Z" id="WPS" fill="#FFFFFF"></path>
                    <path d="M28.6611667,10.2049972 L28.6611667,10.4278826 L20.0482396,10.4278826 C19.1689812,10.4278826 18.4562013,9.71510278 18.4562013,8.83584432 L18.4562013,5.1882928e-06 C18.8793699,-0.00241474268 19.2861009,0.163714842 19.5865485,0.461722938 L28.215396,9.07465007 C28.5075806,9.37768192 28.6678577,9.78409898 28.6611667,10.2049972 L28.6611667,10.2049972 Z" id="路径" fill="#D7DDE6"></path>
                </g>
            </g>
        </g>
    </g>
</svg>